<?xml version="1.0" encoding="UTF-8" standalone="no"?>
<!DOCTYPE svg PUBLIC "-//W3C//DTD SVG 1.1//EN"
 "http://www.w3.org/Graphics/SVG/1.1/DTD/svg11.dtd">
<!-- Generated by graphviz version 2.40.1 (20161225.0304)
 -->
<!-- Title: G Pages: 1 -->
<svg width="1568pt" height="408pt"
 viewBox="0.00 0.00 1567.56 408.00" xmlns="http://www.w3.org/2000/svg" xmlns:xlink="http://www.w3.org/1999/xlink">
<g id="graph0" class="graph" transform="scale(1 1) rotate(0) translate(4 404)">
<title>G</title>
<polygon fill="#ffffff" stroke="transparent" points="-4,4 -4,-404 1563.559,-404 1563.559,4 -4,4"/>
<!-- A0 -->
<g id="node1" class="node">
<title>A0</title>
<polygon fill="#fff8dc" stroke="#000000" points="83.1771,-350 -.0591,-350 -.0591,-314 89.1771,-314 89.1771,-344 83.1771,-350"/>
<polyline fill="none" stroke="#000000" points="83.1771,-350 83.1771,-344 "/>
<polyline fill="none" stroke="#000000" points="89.1771,-344 83.1771,-344 "/>
<text text-anchor="middle" x="44.559" y="-329" font-family="Helvetica,sans-Serif" font-size="10.00" fill="#000000">Diagrama V2!</text>
</g>
<!-- A1 -->
<g id="node2" class="node">
<title>A1</title>
<polygon fill="none" stroke="#000000" points="114.559,-170 114.559,-202 199.559,-202 199.559,-170 114.559,-170"/>
<text text-anchor="start" x="133.1625" y="-183" font-family="Helvetica,sans-Serif" font-size="10.00" fill="#000000">EventType</text>
<polygon fill="none" stroke="#000000" points="114.559,-138 114.559,-170 199.559,-170 199.559,-138 114.559,-138"/>
<text text-anchor="start" x="124.555" y="-151" font-family="Helvetica,sans-Serif" font-size="10.00" fill="#000000">name:char(50)</text>
</g>
<!-- A2 -->
<g id="node3" class="node">
<title>A2</title>
<polygon fill="none" stroke="#000000" points="107.559,-362 107.559,-394 206.559,-394 206.559,-362 107.559,-362"/>
<text text-anchor="start" x="144.276" y="-375" font-family="Helvetica,sans-Serif" font-size="10.00" fill="#000000">Event</text>
<polygon fill="none" stroke="#000000" points="107.559,-270 107.559,-362 206.559,-362 206.559,-270 107.559,-270"/>
<text text-anchor="start" x="121.7755" y="-343" font-family="Helvetica,sans-Serif" font-size="10.00" fill="#000000">name:char(100)</text>
<text text-anchor="start" x="123.4405" y="-331" font-family="Helvetica,sans-Serif" font-size="10.00" fill="#000000">description:text</text>
<text text-anchor="start" x="135.389" y="-319" font-family="Helvetica,sans-Serif" font-size="10.00" fill="#000000">price:float</text>
<text text-anchor="start" x="117.3275" y="-307" font-family="Helvetica,sans-Serif" font-size="10.00" fill="#000000">datetime:datetime</text>
<text text-anchor="start" x="122.3305" y="-295" font-family="Helvetica,sans-Serif" font-size="10.00" fill="#000000">place:char(100)</text>
<text text-anchor="start" x="128.4445" y="-283" font-family="Helvetica,sans-Serif" font-size="10.00" fill="#000000">image:image</text>
</g>
<!-- A2&#45;&gt;A1 -->
<g id="edge1" class="edge">
<title>A2&#45;&gt;A1</title>
<path fill="none" stroke="#000000" d="M156.559,-269.8299C156.559,-246.809 156.559,-221.6399 156.559,-202.3331"/>
<text text-anchor="middle" x="165.0114" y="-217.4592" font-family="Helvetica,sans-Serif" font-size="10.00" fill="#000000">1</text>
<text text-anchor="middle" x="148.1066" y="-248.7037" font-family="Helvetica,sans-Serif" font-size="10.00" fill="#000000">0..*</text>
</g>
<!-- A3 -->
<g id="node4" class="node">
<title>A3</title>
<polygon fill="none" stroke="#000000" points="250.559,-170 250.559,-202 337.559,-202 337.559,-170 250.559,-170"/>
<text text-anchor="start" x="260.164" y="-183" font-family="Helvetica,sans-Serif" font-size="10.00" fill="#000000">DocumentType</text>
<polygon fill="none" stroke="#000000" points="250.559,-138 250.559,-170 337.559,-170 337.559,-138 250.559,-138"/>
<text text-anchor="start" x="261.555" y="-151" font-family="Helvetica,sans-Serif" font-size="10.00" fill="#000000">name:char(50)</text>
</g>
<!-- A4 -->
<g id="node5" class="node">
<title>A4</title>
<polygon fill="none" stroke="#000000" points="224.559,-350 224.559,-382 363.559,-382 363.559,-350 224.559,-350"/>
<text text-anchor="start" x="271.2775" y="-363" font-family="Helvetica,sans-Serif" font-size="10.00" fill="#000000">Document</text>
<polygon fill="none" stroke="#000000" points="224.559,-282 224.559,-350 363.559,-350 363.559,-282 224.559,-282"/>
<text text-anchor="start" x="263.2195" y="-331" font-family="Helvetica,sans-Serif" font-size="10.00" fill="#000000">code:char(15)</text>
<text text-anchor="start" x="260.4405" y="-319" font-family="Helvetica,sans-Serif" font-size="10.00" fill="#000000">description:text</text>
<text text-anchor="start" x="262.3855" y="-307" font-family="Helvetica,sans-Serif" font-size="10.00" fill="#000000">attachment:url</text>
<text text-anchor="start" x="234.3245" y="-295" font-family="Helvetica,sans-Serif" font-size="10.00" fill="#000000">documentable:polymorphic</text>
</g>
<!-- A4&#45;&gt;A3 -->
<g id="edge2" class="edge">
<title>A4&#45;&gt;A3</title>
<path fill="none" stroke="#000000" d="M293.559,-281.6302C293.559,-255.8091 293.559,-225.1178 293.559,-202.4575"/>
<text text-anchor="middle" x="302.0114" y="-217.5837" font-family="Helvetica,sans-Serif" font-size="10.00" fill="#000000">1</text>
<text text-anchor="middle" x="285.1066" y="-260.5041" font-family="Helvetica,sans-Serif" font-size="10.00" fill="#000000">0..*</text>
</g>
<!-- A5 -->
<g id="node6" class="node">
<title>A5</title>
<polygon fill="none" stroke="#000000" points="355.559,-182 355.559,-214 465.559,-214 465.559,-182 355.559,-182"/>
<text text-anchor="start" x="400.0055" y="-195" font-family="Helvetica,sans-Serif" font-size="10.00" fill="#000000">User</text>
<polygon fill="none" stroke="#000000" points="355.559,-126 355.559,-182 465.559,-182 465.559,-126 355.559,-126"/>
<text text-anchor="start" x="365.552" y="-163" font-family="Helvetica,sans-Serif" font-size="10.00" fill="#000000">username:char(128)</text>
<text text-anchor="start" x="366.3865" y="-151" font-family="Helvetica,sans-Serif" font-size="10.00" fill="#000000">password:char(128)</text>
<text text-anchor="start" x="385.2845" y="-139" font-family="Helvetica,sans-Serif" font-size="10.00" fill="#000000">email:email</text>
</g>
<!-- A6 -->
<g id="node7" class="node">
<title>A6</title>
<polygon fill="none" stroke="#000000" points="428.559,-368 428.559,-400 540.559,-400 540.559,-368 428.559,-368"/>
<text text-anchor="start" x="468.7215" y="-381" font-family="Helvetica,sans-Serif" font-size="10.00" fill="#000000">Person</text>
<polygon fill="none" stroke="#000000" points="428.559,-264 428.559,-368 540.559,-368 540.559,-264 428.559,-264"/>
<text text-anchor="start" x="438.443" y="-349" font-family="Helvetica,sans-Serif" font-size="10.00" fill="#000000">first_name:char(100)</text>
<text text-anchor="start" x="438.7175" y="-337" font-family="Helvetica,sans-Serif" font-size="10.00" fill="#000000">last_name:char(100)</text>
<text text-anchor="start" x="455.66" y="-325" font-family="Helvetica,sans-Serif" font-size="10.00" fill="#000000">birthday:date</text>
<text text-anchor="start" x="457.3285" y="-313" font-family="Helvetica,sans-Serif" font-size="10.00" fill="#000000">address:text</text>
<text text-anchor="start" x="439.548" y="-301" font-family="Helvetica,sans-Serif" font-size="10.00" fill="#000000">blood_group:char(5)</text>
<text text-anchor="start" x="457.8895" y="-289" font-family="Helvetica,sans-Serif" font-size="10.00" fill="#000000">dni:char(12)</text>
<text text-anchor="start" x="454.555" y="-277" font-family="Helvetica,sans-Serif" font-size="10.00" fill="#000000">picture:image</text>
</g>
<!-- A6&#45;&gt;A5 -->
<g id="edge3" class="edge">
<title>A6&#45;&gt;A5</title>
<path fill="none" stroke="#000000" d="M453.3908,-263.7669C445.7279,-246.9914 437.7227,-229.4665 430.7348,-214.1685"/>
<text text-anchor="middle" x="445.9543" y="-224.1441" font-family="Helvetica,sans-Serif" font-size="10.00" fill="#000000">1</text>
<text text-anchor="middle" x="438.1713" y="-247.7914" font-family="Helvetica,sans-Serif" font-size="10.00" fill="#000000">1</text>
</g>
<!-- A7 -->
<g id="node8" class="node">
<title>A7</title>
<polygon fill="none" stroke="#000000" points="484.559,-176 484.559,-208 577.559,-208 577.559,-176 484.559,-176"/>
<text text-anchor="start" x="516.6065" y="-189" font-family="Helvetica,sans-Serif" font-size="10.00" fill="#000000">Phone</text>
<polygon fill="none" stroke="#000000" points="484.559,-132 484.559,-176 577.559,-176 577.559,-132 484.559,-132"/>
<text text-anchor="start" x="494.111" y="-157" font-family="Helvetica,sans-Serif" font-size="10.00" fill="#000000">number:char(10)</text>
<text text-anchor="start" x="497.4405" y="-145" font-family="Helvetica,sans-Serif" font-size="10.00" fill="#000000">description:text</text>
</g>
<!-- A6&#45;&gt;A7 -->
<g id="edge4" class="edge">
<title>A6&#45;&gt;A7</title>
<path fill="none" stroke="#000000" d="M503.9338,-263.7669C509.3356,-244.7432 515.0111,-224.7557 519.7277,-208.145"/>
<text text-anchor="middle" x="522.9074" y="-224.8906" font-family="Helvetica,sans-Serif" font-size="10.00" fill="#000000">1..*</text>
<text text-anchor="middle" x="500.7541" y="-241.0213" font-family="Helvetica,sans-Serif" font-size="10.00" fill="#000000">1</text>
</g>
<!-- A8 -->
<g id="node9" class="node">
<title>A8</title>
<polygon fill="none" stroke="#000000" points="595.559,-182 595.559,-214 685.559,-214 685.559,-182 595.559,-182"/>
<text text-anchor="start" x="625.002" y="-195" font-family="Helvetica,sans-Serif" font-size="10.00" fill="#000000">Project</text>
<polygon fill="none" stroke="#000000" points="595.559,-126 595.559,-182 685.559,-182 685.559,-126 595.559,-126"/>
<text text-anchor="start" x="619.7135" y="-163" font-family="Helvetica,sans-Serif" font-size="10.00" fill="#000000">date:date</text>
<text text-anchor="start" x="605.2755" y="-151" font-family="Helvetica,sans-Serif" font-size="10.00" fill="#000000">name:char(150)</text>
<text text-anchor="start" x="606.9405" y="-139" font-family="Helvetica,sans-Serif" font-size="10.00" fill="#000000">description:text</text>
</g>
<!-- A9 -->
<g id="node10" class="node">
<title>A9</title>
<polygon fill="none" stroke="#000000" points="704.559,-176 704.559,-208 789.559,-208 789.559,-176 704.559,-176"/>
<text text-anchor="start" x="731.782" y="-189" font-family="Helvetica,sans-Serif" font-size="10.00" fill="#000000">Career</text>
<polygon fill="none" stroke="#000000" points="704.559,-132 704.559,-176 789.559,-176 789.559,-132 704.559,-132"/>
<text text-anchor="start" x="714.555" y="-157" font-family="Helvetica,sans-Serif" font-size="10.00" fill="#000000">name:char(50)</text>
<text text-anchor="start" x="716.2195" y="-145" font-family="Helvetica,sans-Serif" font-size="10.00" fill="#000000">code:char(10)</text>
</g>
<!-- A10 -->
<g id="node11" class="node">
<title>A10</title>
<polygon fill="none" stroke="#000000" points="807.559,-176 807.559,-208 895.559,-208 895.559,-176 807.559,-176"/>
<text text-anchor="start" x="817.389" y="-189" font-family="Helvetica,sans-Serif" font-size="10.00" fill="#000000">AdmissionType</text>
<polygon fill="none" stroke="#000000" points="807.559,-132 807.559,-176 895.559,-176 895.559,-132 807.559,-132"/>
<text text-anchor="start" x="819.055" y="-157" font-family="Helvetica,sans-Serif" font-size="10.00" fill="#000000">name:char(50)</text>
<text text-anchor="start" x="817.9405" y="-145" font-family="Helvetica,sans-Serif" font-size="10.00" fill="#000000">description:text</text>
</g>
<!-- A11 -->
<g id="node12" class="node">
<title>A11</title>
<polygon fill="none" stroke="#000000" points="914.559,-176 914.559,-208 1001.559,-208 1001.559,-176 914.559,-176"/>
<text text-anchor="start" x="928.6135" y="-189" font-family="Helvetica,sans-Serif" font-size="10.00" fill="#000000">MemberType</text>
<polygon fill="none" stroke="#000000" points="914.559,-132 914.559,-176 1001.559,-176 1001.559,-132 914.559,-132"/>
<text text-anchor="start" x="925.555" y="-157" font-family="Helvetica,sans-Serif" font-size="10.00" fill="#000000">name:char(50)</text>
<text text-anchor="start" x="924.4405" y="-145" font-family="Helvetica,sans-Serif" font-size="10.00" fill="#000000">description:text</text>
</g>
<!-- A12 -->
<g id="node13" class="node">
<title>A12</title>
<polygon fill="none" stroke="#000000" points="1307.559,-338 1307.559,-370 1399.559,-370 1399.559,-338 1307.559,-338"/>
<text text-anchor="start" x="1317.4455" y="-351" font-family="Helvetica,sans-Serif" font-size="10.00" fill="#000000">MemberPosition</text>
<polygon fill="none" stroke="#000000" points="1307.559,-294 1307.559,-338 1399.559,-338 1399.559,-294 1307.559,-294"/>
<text text-anchor="start" x="1321.055" y="-319" font-family="Helvetica,sans-Serif" font-size="10.00" fill="#000000">name:char(50)</text>
<text text-anchor="start" x="1319.9405" y="-307" font-family="Helvetica,sans-Serif" font-size="10.00" fill="#000000">description:text</text>
</g>
<!-- A14 -->
<g id="node15" class="node">
<title>A14</title>
<polygon fill="none" stroke="#000000" points="1292.559,-176 1292.559,-208 1415.559,-208 1415.559,-176 1292.559,-176"/>
<text text-anchor="start" x="1302.393" y="-189" font-family="Helvetica,sans-Serif" font-size="10.00" fill="#000000">MemberPositionHistory</text>
<polygon fill="none" stroke="#000000" points="1292.559,-132 1292.559,-176 1415.559,-176 1415.559,-132 1292.559,-132"/>
<text text-anchor="start" x="1320.711" y="-157" font-family="Helvetica,sans-Serif" font-size="10.00" fill="#000000">start_date:date</text>
<text text-anchor="start" x="1322.0955" y="-145" font-family="Helvetica,sans-Serif" font-size="10.00" fill="#000000">end_date:date</text>
</g>
<!-- A12&#45;&gt;A14 -->
<g id="edge10" class="edge">
<title>A12&#45;&gt;A14</title>
<path fill="none" stroke="#000000" d="M1353.559,-293.6083C1353.559,-267.7842 1353.559,-233.8825 1353.559,-208.1162"/>
<text text-anchor="middle" x="1362.0114" y="-223.2423" font-family="Helvetica,sans-Serif" font-size="10.00" fill="#000000">1..*</text>
<text text-anchor="middle" x="1345.1066" y="-272.4821" font-family="Helvetica,sans-Serif" font-size="10.00" fill="#000000">1</text>
</g>
<!-- A13 -->
<g id="node14" class="node">
<title>A13</title>
<polygon fill="none" stroke="#000000" points="901.559,-338 901.559,-370 1013.559,-370 1013.559,-338 901.559,-338"/>
<text text-anchor="start" x="939.227" y="-351" font-family="Helvetica,sans-Serif" font-size="10.00" fill="#000000">Member</text>
<polygon fill="none" stroke="#000000" points="901.559,-294 901.559,-338 1013.559,-338 1013.559,-294 901.559,-294"/>
<text text-anchor="start" x="926.7195" y="-319" font-family="Helvetica,sans-Serif" font-size="10.00" fill="#000000">code:char(15)</text>
<text text-anchor="start" x="911.4325" y="-307" font-family="Helvetica,sans-Serif" font-size="10.00" fill="#000000">admission_date:date</text>
</g>
<!-- A13&#45;&gt;A8 -->
<g id="edge8" class="edge">
<title>A13&#45;&gt;A8</title>
<path fill="none" stroke="#000000" d="M901.5481,-311.8109C846.7997,-290.9549 762.0689,-255.6445 694.559,-214 691.5742,-212.1588 688.5727,-210.1701 685.5966,-208.0909"/>
<text text-anchor="middle" x="705.3049" y="-208.4941" font-family="Helvetica,sans-Serif" font-size="10.00" fill="#000000">0..*</text>
<text text-anchor="middle" x="881.5934" y="-310.1554" font-family="Helvetica,sans-Serif" font-size="10.00" fill="#000000">1..*</text>
</g>
<!-- A13&#45;&gt;A9 -->
<g id="edge7" class="edge">
<title>A13&#45;&gt;A9</title>
<path fill="none" stroke="#000000" d="M904.2826,-293.7673C873.0986,-271.0664 833.1726,-241.4427 798.559,-214 795.5009,-211.5755 792.3672,-209.0449 789.2281,-206.4759"/>
<text text-anchor="middle" x="808.612" y="-208.4021" font-family="Helvetica,sans-Serif" font-size="10.00" fill="#000000">1</text>
<text text-anchor="middle" x="884.6583" y="-286.909" font-family="Helvetica,sans-Serif" font-size="10.00" fill="#000000">0..*</text>
</g>
<!-- A13&#45;&gt;A10 -->
<g id="edge5" class="edge">
<title>A13&#45;&gt;A10</title>
<path fill="none" stroke="#000000" d="M932.4385,-293.6083C915.5412,-267.7842 893.3587,-233.8825 876.4992,-208.1162"/>
<text text-anchor="middle" x="893.4966" y="-215.656" font-family="Helvetica,sans-Serif" font-size="10.00" fill="#000000">1</text>
<text text-anchor="middle" x="915.4411" y="-280.0684" font-family="Helvetica,sans-Serif" font-size="10.00" fill="#000000">0..*</text>
</g>
<!-- A13&#45;&gt;A11 -->
<g id="edge6" class="edge">
<title>A13&#45;&gt;A11</title>
<path fill="none" stroke="#000000" d="M957.559,-293.6083C957.559,-267.7842 957.559,-233.8825 957.559,-208.1162"/>
<text text-anchor="middle" x="966.0114" y="-223.2423" font-family="Helvetica,sans-Serif" font-size="10.00" fill="#000000">1</text>
<text text-anchor="middle" x="949.1066" y="-272.4821" font-family="Helvetica,sans-Serif" font-size="10.00" fill="#000000">0..*</text>
</g>
<!-- A13&#45;&gt;A14 -->
<g id="edge9" class="edge">
<title>A13&#45;&gt;A14</title>
<path fill="none" stroke="#000000" d="M1013.6121,-315.5357C1079.5454,-295.2916 1191.5496,-258.1349 1282.559,-214 1286.343,-212.165 1290.1807,-210.1811 1294.0116,-208.1055"/>
<text text-anchor="middle" x="1282.0695" y="-221.1488" font-family="Helvetica,sans-Serif" font-size="10.00" fill="#000000">0..*</text>
<text text-anchor="middle" x="1028.4046" y="-299.0753" font-family="Helvetica,sans-Serif" font-size="10.00" fill="#000000">1</text>
</g>
<!-- A15 -->
<g id="node16" class="node">
<title>A15</title>
<polygon fill="none" stroke="#000000" points="1019.559,-182 1019.559,-214 1153.559,-214 1153.559,-182 1019.559,-182"/>
<text text-anchor="start" x="1029.3355" y="-195" font-family="Helvetica,sans-Serif" font-size="10.00" fill="#000000">ExtracurricularInformation</text>
<polygon fill="none" stroke="#000000" points="1019.559,-126 1019.559,-182 1153.559,-182 1153.559,-126 1019.559,-126"/>
<text text-anchor="start" x="1065.7135" y="-163" font-family="Helvetica,sans-Serif" font-size="10.00" fill="#000000">date:date</text>
<text text-anchor="start" x="1051.2755" y="-151" font-family="Helvetica,sans-Serif" font-size="10.00" fill="#000000">name:char(100)</text>
<text text-anchor="start" x="1052.9405" y="-139" font-family="Helvetica,sans-Serif" font-size="10.00" fill="#000000">description:text</text>
</g>
<!-- A13&#45;&gt;A15 -->
<g id="edge11" class="edge">
<title>A13&#45;&gt;A15</title>
<path fill="none" stroke="#000000" d="M988.1302,-293.6083C1007.1292,-269.749 1031.6188,-238.9947 1051.417,-214.1318"/>
<text text-anchor="middle" x="1046.7379" y="-230.5767" font-family="Helvetica,sans-Serif" font-size="10.00" fill="#000000">0..*</text>
<text text-anchor="middle" x="992.8093" y="-271.1633" font-family="Helvetica,sans-Serif" font-size="10.00" fill="#000000">1</text>
</g>
<!-- A18 -->
<g id="node19" class="node">
<title>A18</title>
<polygon fill="none" stroke="#000000" points="1274.058,-188 1171.06,-188 1171.06,-152 1274.058,-152 1274.058,-188"/>
<text text-anchor="middle" x="1222.559" y="-167" font-family="Helvetica,sans-Serif" font-size="10.00" fill="#000000">AcedemicHistory</text>
</g>
<!-- A13&#45;&gt;A18 -->
<g id="edge13" class="edge">
<title>A13&#45;&gt;A18</title>
<path fill="none" stroke="#000000" d="M1013.8049,-301.8222C1055.5665,-278.8908 1113.5316,-245.9477 1162.559,-214 1174.8966,-205.9604 1188.1442,-196.3558 1199.0448,-188.1742"/>
<text text-anchor="middle" x="1189.5854" y="-202.7958" font-family="Helvetica,sans-Serif" font-size="10.00" fill="#000000">0..*</text>
<text text-anchor="middle" x="1025.5906" y="-282.6636" font-family="Helvetica,sans-Serif" font-size="10.00" fill="#000000">1</text>
</g>
<!-- A16 -->
<g id="node17" class="node">
<title>A16</title>
<polygon fill="none" stroke="#000000" points="1180.559,-44 1180.559,-76 1265.559,-76 1265.559,-44 1180.559,-44"/>
<text text-anchor="start" x="1206.387" y="-57" font-family="Helvetica,sans-Serif" font-size="10.00" fill="#000000">Subject</text>
<polygon fill="none" stroke="#000000" points="1180.559,0 1180.559,-44 1265.559,-44 1265.559,0 1180.559,0"/>
<text text-anchor="start" x="1190.555" y="-25" font-family="Helvetica,sans-Serif" font-size="10.00" fill="#000000">name:char(50)</text>
<text text-anchor="start" x="1192.2195" y="-13" font-family="Helvetica,sans-Serif" font-size="10.00" fill="#000000">code:char(15)</text>
</g>
<!-- A17 -->
<g id="node18" class="node">
<title>A17</title>
<polygon fill="none" stroke="#000000" points="1417.559,-338 1417.559,-370 1559.559,-370 1559.559,-338 1417.559,-338"/>
<text text-anchor="start" x="1451.0595" y="-351" font-family="Helvetica,sans-Serif" font-size="10.00" fill="#000000">AcademicHistory</text>
<polygon fill="none" stroke="#000000" points="1417.559,-294 1417.559,-338 1559.559,-338 1559.559,-294 1417.559,-294"/>
<text text-anchor="start" x="1427.165" y="-319" font-family="Helvetica,sans-Serif" font-size="10.00" fill="#000000">semester:positive_small_int</text>
<text text-anchor="start" x="1452.441" y="-307" font-family="Helvetica,sans-Serif" font-size="10.00" fill="#000000">year:positive_int</text>
</g>
<!-- A18&#45;&gt;A16 -->
<g id="edge12" class="edge">
<title>A18&#45;&gt;A16</title>
<path fill="none" stroke="#000000" d="M1222.559,-151.9227C1222.559,-132.5054 1222.559,-101.0814 1222.559,-76.1501"/>
<text text-anchor="middle" x="1231.0114" y="-91.2763" font-family="Helvetica,sans-Serif" font-size="10.00" fill="#000000">1..*</text>
<text text-anchor="middle" x="1214.1066" y="-130.7966" font-family="Helvetica,sans-Serif" font-size="10.00" fill="#000000">0..*</text>
</g>
</g>
</svg>
