<?xml version="1.0" encoding="UTF-8" standalone="no"?>
<!DOCTYPE svg PUBLIC "-//W3C//DTD SVG 1.1//EN"
 "http://www.w3.org/Graphics/SVG/1.1/DTD/svg11.dtd">
<!-- Generated by graphviz version 2.40.1 (20161225.0304)
 -->
<!-- Title: G Pages: 1 -->
<svg width="1353pt" height="456pt"
 viewBox="0.00 0.00 1353.06 456.00" xmlns="http://www.w3.org/2000/svg" xmlns:xlink="http://www.w3.org/1999/xlink">
<g id="graph0" class="graph" transform="scale(1 1) rotate(0) translate(4 452)">
<title>G</title>
<polygon fill="#ffffff" stroke="transparent" points="-4,4 -4,-452 1349.059,-452 1349.059,4 -4,4"/>
<!-- A0 -->
<g id="node1" class="node">
<title>A0</title>
<polygon fill="#fff8dc" stroke="#000000" points="83.1771,-404 -.0591,-404 -.0591,-368 89.1771,-368 89.1771,-398 83.1771,-404"/>
<polyline fill="none" stroke="#000000" points="83.1771,-404 83.1771,-398 "/>
<polyline fill="none" stroke="#000000" points="89.1771,-398 83.1771,-398 "/>
<text text-anchor="middle" x="44.559" y="-383" font-family="Helvetica,sans-Serif" font-size="10.00" fill="#000000">Diagrama V2!</text>
</g>
<!-- A1 -->
<g id="node2" class="node">
<title>A1</title>
<polygon fill="none" stroke="#000000" points="114.559,-206 114.559,-238 199.559,-238 199.559,-206 114.559,-206"/>
<text text-anchor="start" x="133.1625" y="-219" font-family="Helvetica,sans-Serif" font-size="10.00" fill="#000000">EventType</text>
<polygon fill="none" stroke="#000000" points="114.559,-174 114.559,-206 199.559,-206 199.559,-174 114.559,-174"/>
<text text-anchor="start" x="124.555" y="-187" font-family="Helvetica,sans-Serif" font-size="10.00" fill="#000000">name:char(50)</text>
</g>
<!-- A2 -->
<g id="node3" class="node">
<title>A2</title>
<polygon fill="none" stroke="#000000" points="107.559,-416 107.559,-448 206.559,-448 206.559,-416 107.559,-416"/>
<text text-anchor="start" x="144.276" y="-429" font-family="Helvetica,sans-Serif" font-size="10.00" fill="#000000">Event</text>
<polygon fill="none" stroke="#000000" points="107.559,-324 107.559,-416 206.559,-416 206.559,-324 107.559,-324"/>
<text text-anchor="start" x="121.7755" y="-397" font-family="Helvetica,sans-Serif" font-size="10.00" fill="#000000">name:char(100)</text>
<text text-anchor="start" x="123.4405" y="-385" font-family="Helvetica,sans-Serif" font-size="10.00" fill="#000000">description:text</text>
<text text-anchor="start" x="135.389" y="-373" font-family="Helvetica,sans-Serif" font-size="10.00" fill="#000000">price:float</text>
<text text-anchor="start" x="117.3275" y="-361" font-family="Helvetica,sans-Serif" font-size="10.00" fill="#000000">datetime:datetime</text>
<text text-anchor="start" x="122.3305" y="-349" font-family="Helvetica,sans-Serif" font-size="10.00" fill="#000000">place:char(100)</text>
<text text-anchor="start" x="128.4445" y="-337" font-family="Helvetica,sans-Serif" font-size="10.00" fill="#000000">image:image</text>
</g>
<!-- A2&#45;&gt;A1 -->
<g id="edge1" class="edge">
<title>A2&#45;&gt;A1</title>
<path fill="none" stroke="#000000" d="M156.559,-323.8022C156.559,-294.9428 156.559,-261.8541 156.559,-238.1074"/>
<text text-anchor="middle" x="165.0114" y="-253.2336" font-family="Helvetica,sans-Serif" font-size="10.00" fill="#000000">1</text>
<text text-anchor="middle" x="148.1066" y="-302.676" font-family="Helvetica,sans-Serif" font-size="10.00" fill="#000000">0..*</text>
</g>
<!-- A3 -->
<g id="node4" class="node">
<title>A3</title>
<polygon fill="none" stroke="#000000" points="250.559,-206 250.559,-238 337.559,-238 337.559,-206 250.559,-206"/>
<text text-anchor="start" x="260.164" y="-219" font-family="Helvetica,sans-Serif" font-size="10.00" fill="#000000">DocumentType</text>
<polygon fill="none" stroke="#000000" points="250.559,-174 250.559,-206 337.559,-206 337.559,-174 250.559,-174"/>
<text text-anchor="start" x="261.555" y="-187" font-family="Helvetica,sans-Serif" font-size="10.00" fill="#000000">name:char(50)</text>
</g>
<!-- A4 -->
<g id="node5" class="node">
<title>A4</title>
<polygon fill="none" stroke="#000000" points="224.559,-404 224.559,-436 363.559,-436 363.559,-404 224.559,-404"/>
<text text-anchor="start" x="271.2775" y="-417" font-family="Helvetica,sans-Serif" font-size="10.00" fill="#000000">Document</text>
<polygon fill="none" stroke="#000000" points="224.559,-336 224.559,-404 363.559,-404 363.559,-336 224.559,-336"/>
<text text-anchor="start" x="263.2195" y="-385" font-family="Helvetica,sans-Serif" font-size="10.00" fill="#000000">code:char(15)</text>
<text text-anchor="start" x="260.4405" y="-373" font-family="Helvetica,sans-Serif" font-size="10.00" fill="#000000">description:text</text>
<text text-anchor="start" x="262.3855" y="-361" font-family="Helvetica,sans-Serif" font-size="10.00" fill="#000000">attachment:url</text>
<text text-anchor="start" x="234.3245" y="-349" font-family="Helvetica,sans-Serif" font-size="10.00" fill="#000000">documentable:polymorphic</text>
</g>
<!-- A4&#45;&gt;A3 -->
<g id="edge2" class="edge">
<title>A4&#45;&gt;A3</title>
<path fill="none" stroke="#000000" d="M293.559,-335.86C293.559,-304.5486 293.559,-265.1709 293.559,-238.0329"/>
<text text-anchor="middle" x="302.0114" y="-253.159" font-family="Helvetica,sans-Serif" font-size="10.00" fill="#000000">1</text>
<text text-anchor="middle" x="285.1066" y="-314.7338" font-family="Helvetica,sans-Serif" font-size="10.00" fill="#000000">0..*</text>
</g>
<!-- A5 -->
<g id="node6" class="node">
<title>A5</title>
<polygon fill="none" stroke="#000000" points="296.559,-56 296.559,-88 406.559,-88 406.559,-56 296.559,-56"/>
<text text-anchor="start" x="341.0055" y="-69" font-family="Helvetica,sans-Serif" font-size="10.00" fill="#000000">User</text>
<polygon fill="none" stroke="#000000" points="296.559,0 296.559,-56 406.559,-56 406.559,0 296.559,0"/>
<text text-anchor="start" x="306.552" y="-37" font-family="Helvetica,sans-Serif" font-size="10.00" fill="#000000">username:char(128)</text>
<text text-anchor="start" x="307.3865" y="-25" font-family="Helvetica,sans-Serif" font-size="10.00" fill="#000000">password:char(128)</text>
<text text-anchor="start" x="326.2845" y="-13" font-family="Helvetica,sans-Serif" font-size="10.00" fill="#000000">email:email</text>
</g>
<!-- A6 -->
<g id="node7" class="node">
<title>A6</title>
<polygon fill="none" stroke="#000000" points="355.559,-242 355.559,-274 467.559,-274 467.559,-242 355.559,-242"/>
<text text-anchor="start" x="395.7215" y="-255" font-family="Helvetica,sans-Serif" font-size="10.00" fill="#000000">Person</text>
<polygon fill="none" stroke="#000000" points="355.559,-138 355.559,-242 467.559,-242 467.559,-138 355.559,-138"/>
<text text-anchor="start" x="365.443" y="-223" font-family="Helvetica,sans-Serif" font-size="10.00" fill="#000000">first_name:char(100)</text>
<text text-anchor="start" x="365.7175" y="-211" font-family="Helvetica,sans-Serif" font-size="10.00" fill="#000000">last_name:char(100)</text>
<text text-anchor="start" x="382.66" y="-199" font-family="Helvetica,sans-Serif" font-size="10.00" fill="#000000">birthday:date</text>
<text text-anchor="start" x="384.3285" y="-187" font-family="Helvetica,sans-Serif" font-size="10.00" fill="#000000">address:text</text>
<text text-anchor="start" x="366.548" y="-175" font-family="Helvetica,sans-Serif" font-size="10.00" fill="#000000">blood_group:char(5)</text>
<text text-anchor="start" x="384.8895" y="-163" font-family="Helvetica,sans-Serif" font-size="10.00" fill="#000000">dni:char(12)</text>
<text text-anchor="start" x="381.555" y="-151" font-family="Helvetica,sans-Serif" font-size="10.00" fill="#000000">picture:image</text>
</g>
<!-- A6&#45;&gt;A5 -->
<g id="edge3" class="edge">
<title>A6&#45;&gt;A5</title>
<path fill="none" stroke="#000000" d="M386.2875,-137.7669C380.0744,-120.9914 373.5836,-103.4665 367.9177,-88.1685"/>
<text text-anchor="middle" x="382.1394" y="-99.2307" font-family="Helvetica,sans-Serif" font-size="10.00" fill="#000000">1</text>
<text text-anchor="middle" x="372.0658" y="-120.7048" font-family="Helvetica,sans-Serif" font-size="10.00" fill="#000000">1</text>
</g>
<!-- A7 -->
<g id="node8" class="node">
<title>A7</title>
<polygon fill="none" stroke="#000000" points="425.559,-50 425.559,-82 518.559,-82 518.559,-50 425.559,-50"/>
<text text-anchor="start" x="457.6065" y="-63" font-family="Helvetica,sans-Serif" font-size="10.00" fill="#000000">Phone</text>
<polygon fill="none" stroke="#000000" points="425.559,-6 425.559,-50 518.559,-50 518.559,-6 425.559,-6"/>
<text text-anchor="start" x="435.111" y="-31" font-family="Helvetica,sans-Serif" font-size="10.00" fill="#000000">number:char(10)</text>
<text text-anchor="start" x="438.4405" y="-19" font-family="Helvetica,sans-Serif" font-size="10.00" fill="#000000">description:text</text>
</g>
<!-- A6&#45;&gt;A7 -->
<g id="edge4" class="edge">
<title>A6&#45;&gt;A7</title>
<path fill="none" stroke="#000000" d="M436.8305,-137.7669C443.8763,-118.7432 451.2791,-98.7557 457.4312,-82.145"/>
<text text-anchor="middle" x="459.062" y="-99.0784" font-family="Helvetica,sans-Serif" font-size="10.00" fill="#000000">1..*</text>
<text text-anchor="middle" x="435.1998" y="-114.8335" font-family="Helvetica,sans-Serif" font-size="10.00" fill="#000000">1</text>
</g>
<!-- A8 -->
<g id="node9" class="node">
<title>A8</title>
<polygon fill="none" stroke="#000000" points="485.559,-218 485.559,-250 575.559,-250 575.559,-218 485.559,-218"/>
<text text-anchor="start" x="515.002" y="-231" font-family="Helvetica,sans-Serif" font-size="10.00" fill="#000000">Project</text>
<polygon fill="none" stroke="#000000" points="485.559,-162 485.559,-218 575.559,-218 575.559,-162 485.559,-162"/>
<text text-anchor="start" x="509.7135" y="-199" font-family="Helvetica,sans-Serif" font-size="10.00" fill="#000000">date:date</text>
<text text-anchor="start" x="495.2755" y="-187" font-family="Helvetica,sans-Serif" font-size="10.00" fill="#000000">name:char(150)</text>
<text text-anchor="start" x="496.9405" y="-175" font-family="Helvetica,sans-Serif" font-size="10.00" fill="#000000">description:text</text>
</g>
<!-- A9 -->
<g id="node10" class="node">
<title>A9</title>
<polygon fill="none" stroke="#000000" points="594.559,-212 594.559,-244 679.559,-244 679.559,-212 594.559,-212"/>
<text text-anchor="start" x="621.782" y="-225" font-family="Helvetica,sans-Serif" font-size="10.00" fill="#000000">Career</text>
<polygon fill="none" stroke="#000000" points="594.559,-168 594.559,-212 679.559,-212 679.559,-168 594.559,-168"/>
<text text-anchor="start" x="604.555" y="-193" font-family="Helvetica,sans-Serif" font-size="10.00" fill="#000000">name:char(50)</text>
<text text-anchor="start" x="606.2195" y="-181" font-family="Helvetica,sans-Serif" font-size="10.00" fill="#000000">code:char(10)</text>
</g>
<!-- A10 -->
<g id="node11" class="node">
<title>A10</title>
<polygon fill="none" stroke="#000000" points="697.559,-212 697.559,-244 785.559,-244 785.559,-212 697.559,-212"/>
<text text-anchor="start" x="707.389" y="-225" font-family="Helvetica,sans-Serif" font-size="10.00" fill="#000000">AdmissionType</text>
<polygon fill="none" stroke="#000000" points="697.559,-168 697.559,-212 785.559,-212 785.559,-168 697.559,-168"/>
<text text-anchor="start" x="709.055" y="-193" font-family="Helvetica,sans-Serif" font-size="10.00" fill="#000000">name:char(50)</text>
<text text-anchor="start" x="707.9405" y="-181" font-family="Helvetica,sans-Serif" font-size="10.00" fill="#000000">description:text</text>
</g>
<!-- A11 -->
<g id="node12" class="node">
<title>A11</title>
<polygon fill="none" stroke="#000000" points="804.559,-212 804.559,-244 891.559,-244 891.559,-212 804.559,-212"/>
<text text-anchor="start" x="818.6135" y="-225" font-family="Helvetica,sans-Serif" font-size="10.00" fill="#000000">MemberType</text>
<polygon fill="none" stroke="#000000" points="804.559,-168 804.559,-212 891.559,-212 891.559,-168 804.559,-168"/>
<text text-anchor="start" x="815.555" y="-193" font-family="Helvetica,sans-Serif" font-size="10.00" fill="#000000">name:char(50)</text>
<text text-anchor="start" x="814.4405" y="-181" font-family="Helvetica,sans-Serif" font-size="10.00" fill="#000000">description:text</text>
</g>
<!-- A12 -->
<g id="node13" class="node">
<title>A12</title>
<polygon fill="none" stroke="#000000" points="1237.559,-392 1237.559,-424 1329.559,-424 1329.559,-392 1237.559,-392"/>
<text text-anchor="start" x="1247.4455" y="-405" font-family="Helvetica,sans-Serif" font-size="10.00" fill="#000000">MemberPosition</text>
<polygon fill="none" stroke="#000000" points="1237.559,-348 1237.559,-392 1329.559,-392 1329.559,-348 1237.559,-348"/>
<text text-anchor="start" x="1251.055" y="-373" font-family="Helvetica,sans-Serif" font-size="10.00" fill="#000000">name:char(50)</text>
<text text-anchor="start" x="1249.9405" y="-361" font-family="Helvetica,sans-Serif" font-size="10.00" fill="#000000">description:text</text>
</g>
<!-- A14 -->
<g id="node15" class="node">
<title>A14</title>
<polygon fill="none" stroke="#000000" points="1222.559,-212 1222.559,-244 1345.559,-244 1345.559,-212 1222.559,-212"/>
<text text-anchor="start" x="1232.393" y="-225" font-family="Helvetica,sans-Serif" font-size="10.00" fill="#000000">MemberPositionHistory</text>
<polygon fill="none" stroke="#000000" points="1222.559,-168 1222.559,-212 1345.559,-212 1345.559,-168 1222.559,-168"/>
<text text-anchor="start" x="1250.711" y="-193" font-family="Helvetica,sans-Serif" font-size="10.00" fill="#000000">start_date:date</text>
<text text-anchor="start" x="1252.0955" y="-181" font-family="Helvetica,sans-Serif" font-size="10.00" fill="#000000">end_date:date</text>
</g>
<!-- A12&#45;&gt;A14 -->
<g id="edge11" class="edge">
<title>A12&#45;&gt;A14</title>
<path fill="none" stroke="#000000" d="M1283.559,-347.8266C1283.559,-317.28 1283.559,-274.6504 1283.559,-244.1183"/>
<text text-anchor="middle" x="1292.0114" y="-259.2445" font-family="Helvetica,sans-Serif" font-size="10.00" fill="#000000">1..*</text>
<text text-anchor="middle" x="1275.1066" y="-326.7005" font-family="Helvetica,sans-Serif" font-size="10.00" fill="#000000">1</text>
</g>
<!-- A13 -->
<g id="node14" class="node">
<title>A13</title>
<polygon fill="none" stroke="#000000" points="738.559,-392 738.559,-424 850.559,-424 850.559,-392 738.559,-392"/>
<text text-anchor="start" x="776.227" y="-405" font-family="Helvetica,sans-Serif" font-size="10.00" fill="#000000">Member</text>
<polygon fill="none" stroke="#000000" points="738.559,-348 738.559,-392 850.559,-392 850.559,-348 738.559,-348"/>
<text text-anchor="start" x="763.7195" y="-373" font-family="Helvetica,sans-Serif" font-size="10.00" fill="#000000">code:char(15)</text>
<text text-anchor="start" x="748.4325" y="-361" font-family="Helvetica,sans-Serif" font-size="10.00" fill="#000000">admission_date:date</text>
</g>
<!-- A13&#45;&gt;A6 -->
<g id="edge5" class="edge">
<title>A13&#45;&gt;A6</title>
<path fill="none" stroke="#000000" d="M738.4298,-374.644C671.9618,-359.3719 559.7864,-327.7336 476.559,-274 473.5405,-272.0512 470.5608,-269.9351 467.6355,-267.695"/>
<text text-anchor="middle" x="487.181" y="-268.9345" font-family="Helvetica,sans-Serif" font-size="10.00" fill="#000000">1</text>
<text text-anchor="middle" x="718.8349" y="-375.649" font-family="Helvetica,sans-Serif" font-size="10.00" fill="#000000">1</text>
</g>
<!-- A13&#45;&gt;A8 -->
<g id="edge9" class="edge">
<title>A13&#45;&gt;A8</title>
<path fill="none" stroke="#000000" d="M738.1425,-363.527C693.5346,-344.0447 631.2178,-312.8876 584.559,-274 576.2211,-267.0508 568.3018,-258.6316 561.2251,-250.119"/>
<text text-anchor="middle" x="579.3677" y="-255.536" font-family="Helvetica,sans-Serif" font-size="10.00" fill="#000000">0..*</text>
<text text-anchor="middle" x="718.1453" y="-360.8627" font-family="Helvetica,sans-Serif" font-size="10.00" fill="#000000">1..*</text>
</g>
<!-- A13&#45;&gt;A9 -->
<g id="edge8" class="edge">
<title>A13&#45;&gt;A9</title>
<path fill="none" stroke="#000000" d="M756.491,-347.7921C735.8296,-326.5613 710.1681,-299.3777 688.559,-274 680.5619,-264.6082 672.2843,-254.1584 664.7487,-244.3239"/>
<text text-anchor="middle" x="682.499" y="-250.5395" font-family="Helvetica,sans-Serif" font-size="10.00" fill="#000000">1</text>
<text text-anchor="middle" x="737.806" y="-337.6597" font-family="Helvetica,sans-Serif" font-size="10.00" fill="#000000">0..*</text>
</g>
<!-- A13&#45;&gt;A10 -->
<g id="edge6" class="edge">
<title>A13&#45;&gt;A10</title>
<path fill="none" stroke="#000000" d="M783.3191,-347.8266C774.3248,-317.28 761.7727,-274.6504 752.7827,-244.1183"/>
<text text-anchor="middle" x="766.0107" y="-256.119" font-family="Helvetica,sans-Serif" font-size="10.00" fill="#000000">1</text>
<text text-anchor="middle" x="770.0911" y="-329.826" font-family="Helvetica,sans-Serif" font-size="10.00" fill="#000000">0..*</text>
</g>
<!-- A13&#45;&gt;A11 -->
<g id="edge7" class="edge">
<title>A13&#45;&gt;A11</title>
<path fill="none" stroke="#000000" d="M805.7989,-347.8266C814.7932,-317.28 827.3453,-274.6504 836.3353,-244.1183"/>
<text text-anchor="middle" x="839.3236" y="-260.8938" font-family="Helvetica,sans-Serif" font-size="10.00" fill="#000000">1</text>
<text text-anchor="middle" x="802.8106" y="-325.0511" font-family="Helvetica,sans-Serif" font-size="10.00" fill="#000000">0..*</text>
</g>
<!-- A13&#45;&gt;A14 -->
<g id="edge10" class="edge">
<title>A13&#45;&gt;A14</title>
<path fill="none" stroke="#000000" d="M850.658,-379.9726C934.1744,-369.0801 1094.0664,-340.7171 1212.559,-274 1226.3904,-266.2123 1239.5425,-255.1086 1250.6835,-244.1261"/>
<text text-anchor="middle" x="1243.5455" y="-259.8089" font-family="Helvetica,sans-Serif" font-size="10.00" fill="#000000">0..*</text>
<text text-anchor="middle" x="867.4369" y="-366.0883" font-family="Helvetica,sans-Serif" font-size="10.00" fill="#000000">1</text>
</g>
<!-- A15 -->
<g id="node16" class="node">
<title>A15</title>
<polygon fill="none" stroke="#000000" points="909.559,-218 909.559,-250 1043.559,-250 1043.559,-218 909.559,-218"/>
<text text-anchor="start" x="919.3355" y="-231" font-family="Helvetica,sans-Serif" font-size="10.00" fill="#000000">ExtracurricularInformation</text>
<polygon fill="none" stroke="#000000" points="909.559,-162 909.559,-218 1043.559,-218 1043.559,-162 909.559,-162"/>
<text text-anchor="start" x="955.7135" y="-199" font-family="Helvetica,sans-Serif" font-size="10.00" fill="#000000">date:date</text>
<text text-anchor="start" x="941.2755" y="-187" font-family="Helvetica,sans-Serif" font-size="10.00" fill="#000000">name:char(100)</text>
<text text-anchor="start" x="942.9405" y="-175" font-family="Helvetica,sans-Serif" font-size="10.00" fill="#000000">description:text</text>
</g>
<!-- A13&#45;&gt;A15 -->
<g id="edge12" class="edge">
<title>A13&#45;&gt;A15</title>
<path fill="none" stroke="#000000" d="M833.1565,-347.8266C862.06,-319.2408 901.6626,-280.0734 931.9276,-250.141"/>
<text text-anchor="middle" x="924.9834" y="-265.8967" font-family="Helvetica,sans-Serif" font-size="10.00" fill="#000000">0..*</text>
<text text-anchor="middle" x="840.1006" y="-326.0709" font-family="Helvetica,sans-Serif" font-size="10.00" fill="#000000">1</text>
</g>
<!-- A17 -->
<g id="node18" class="node">
<title>A17</title>
<polygon fill="none" stroke="#000000" points="1061.559,-212 1061.559,-244 1203.559,-244 1203.559,-212 1061.559,-212"/>
<text text-anchor="start" x="1095.0595" y="-225" font-family="Helvetica,sans-Serif" font-size="10.00" fill="#000000">AcademicHistory</text>
<polygon fill="none" stroke="#000000" points="1061.559,-168 1061.559,-212 1203.559,-212 1203.559,-168 1061.559,-168"/>
<text text-anchor="start" x="1071.165" y="-193" font-family="Helvetica,sans-Serif" font-size="10.00" fill="#000000">semester:positive_small_int</text>
<text text-anchor="start" x="1096.441" y="-181" font-family="Helvetica,sans-Serif" font-size="10.00" fill="#000000">year:positive_int</text>
</g>
<!-- A13&#45;&gt;A17 -->
<g id="edge14" class="edge">
<title>A13&#45;&gt;A17</title>
<path fill="none" stroke="#000000" d="M850.7592,-367.0743C904.6665,-347.6813 987.2776,-314.6583 1052.559,-274 1066.3298,-265.4233 1080.1947,-254.5913 1092.424,-244.1088"/>
<text text-anchor="middle" x="1084.0699" y="-259.2804" font-family="Helvetica,sans-Serif" font-size="10.00" fill="#000000">0..*</text>
<text text-anchor="middle" x="864.8734" y="-349.9043" font-family="Helvetica,sans-Serif" font-size="10.00" fill="#000000">1</text>
</g>
<!-- A16 -->
<g id="node17" class="node">
<title>A16</title>
<polygon fill="none" stroke="#000000" points="1090.559,-50 1090.559,-82 1175.559,-82 1175.559,-50 1090.559,-50"/>
<text text-anchor="start" x="1116.387" y="-63" font-family="Helvetica,sans-Serif" font-size="10.00" fill="#000000">Subject</text>
<polygon fill="none" stroke="#000000" points="1090.559,-6 1090.559,-50 1175.559,-50 1175.559,-6 1090.559,-6"/>
<text text-anchor="start" x="1100.555" y="-31" font-family="Helvetica,sans-Serif" font-size="10.00" fill="#000000">name:char(50)</text>
<text text-anchor="start" x="1102.2195" y="-19" font-family="Helvetica,sans-Serif" font-size="10.00" fill="#000000">code:char(15)</text>
</g>
<!-- A17&#45;&gt;A16 -->
<g id="edge13" class="edge">
<title>A17&#45;&gt;A16</title>
<path fill="none" stroke="#000000" d="M1132.559,-167.6083C1132.559,-141.7842 1132.559,-107.8825 1132.559,-82.1162"/>
<text text-anchor="middle" x="1141.0114" y="-97.2423" font-family="Helvetica,sans-Serif" font-size="10.00" fill="#000000">1..*</text>
<text text-anchor="middle" x="1124.1066" y="-146.4821" font-family="Helvetica,sans-Serif" font-size="10.00" fill="#000000">0..*</text>
</g>
</g>
</svg>
